<svg fill= "#4487a2" height="512pt" viewBox="0 0 512 512" width="512pt" xmlns="http://www.w3.org/2000/svg"><path d="m159.601562 512c-43.710937 0-79.269531-35.558594-79.269531-79.265625 0-.359375.003907-.71875.007813-1.074219-.359375.003906-.714844.003906-1.074219.003906-43.707031.003907-79.265625-35.554687-79.265625-79.265624 0-43.707032 35.558594-79.265626 79.265625-79.265626 16.078125 0 31.425781 4.757813 44.441406 13.613282l163.039063-163.046875c-8.851563-13.011719-13.609375-28.359375-13.609375-44.433594-.003907-43.707031 35.554687-79.265625 79.261719-79.265625 43.710937 0 79.269531 35.558594 79.269531 79.265625 0 .359375-.003907.71875-.007813 1.074219.355469-.003906.714844-.003906 1.074219-.003906 43.707031 0 79.265625 35.558593 79.265625 79.265624 0 43.707032-35.558594 79.265626-79.265625 79.265626-16.078125 0-31.425781-4.761719-44.445313-13.617188l-163.035156 163.042969c8.851563 13.015625 13.613282 28.363281 13.613282 44.441406 0 43.707031-35.558594 79.265625-79.265626 79.265625zm-47.105468-93.742188c-1.433594 4.652344-2.160156 9.523438-2.160156 14.476563 0 27.164063 22.097656 49.265625 49.265624 49.265625 27.164063 0 49.265626-22.101562 49.265626-49.265625 0-13.152344-5.125-25.523437-14.4375-34.832031-5.855469-5.855469-5.855469-15.355469 0-21.210938l182.261718-182.269531c5.855469-5.859375 15.359375-5.851563 21.210938 0 9.316406 9.3125 21.683594 14.445313 34.832031 14.445313 27.164063 0 49.265625-22.101563 49.265625-49.269532 0-27.164062-22.101562-49.265625-49.265625-49.265625-4.945313 0-9.820313.726563-14.480469 2.164063-11.496094 3.53125-22.289062-7.253906-18.75-18.75 1.433594-4.664063 2.164063-9.535156 2.164063-14.480469 0-27.164063-22.101563-49.265625-49.269531-49.265625-27.164063 0-49.265626 22.101562-49.265626 49.265625 0 13.148437 5.128907 25.515625 14.4375 34.824219 5.859376 5.855468 5.851563 15.359375 0 21.210937l-182.261718 182.269531c-5.855469 5.859376-15.359375 5.851563-21.210938 0-9.3125-9.308593-21.679687-14.4375-34.832031-14.4375-27.164063 0-49.265625 22.101563-49.265625 49.265626 0 27.167968 22.101562 49.269531 49.265625 49.269531 4.925781 0 9.804687-.730469 14.5-2.171875 12.421875-3.804688 21.992187 8.175781 18.730469 18.761718zm0 0"/></svg>