<?xml version="1.0"?>
<svg xmlns="http://www.w3.org/2000/svg" viewBox="0 0 512 512" width="512" height="512"><g id="outline"><circle cx="369.606" cy="88" r="8"/><path d="M54.736,443.312A51.828,51.828,0,0,0,88.73,456h26.493a29.852,29.852,0,0,0,20.356,8H249.606a8,8,0,0,0,8-8V439.291a31.3,31.3,0,0,0-15.126-26.784l10.705-5.352a8.02,8.02,0,0,0,2.079-1.5L277.516,383.4l20.373,74.7a8,8,0,0,0,7.717,5.9h72a8,8,0,0,0,7.761-6.06l8-32a8,8,0,0,0-5.23-9.53L368.307,409.8l-6.7-26.784V305.634l7.968-18.592a140.987,140.987,0,0,0,11.2-63.53A24,24,0,1,0,385.606,176c-.278,0-.553.012-.829.021l7.181-25.133,35.218-7.043a7.994,7.994,0,0,0,2.868-1.189l24-16A8,8,0,0,0,457.606,120V80a8,8,0,0,0-8-8H406.551L392.762,44.422A8,8,0,0,0,385.606,40h-40a7.993,7.993,0,0,0-2.97.572l-40,16a8,8,0,0,0-4.619,4.9l-8,24v0l-15.4,46.21-14.664,14.663a8.033,8.033,0,0,0-1.5,2.079,144.283,144.283,0,0,1-42.266,50.643l-55.576,41.682a168.392,168.392,0,0,0-61.128,89.974L92.729,355.48a26.7,26.7,0,0,1-2.512-2.628,26.325,26.325,0,0,1-5.084-9.629,96.276,96.276,0,0,0-21-37.882,96.286,96.286,0,0,0-35.551-24.77,8,8,0,0,0-10.92,6.546l-.13,1.166a249.176,249.176,0,0,0,24.8,139.034A51.527,51.527,0,0,0,54.736,443.312Zm280.742-33.788-5.868-26.4V339.313l16-16V384a7.93,7.93,0,0,0,.24,1.94l7.374,29.5Zm40.575,19.723L371.364,448H355.852l5.515-22.06a8.088,8.088,0,0,0,.229-1.512ZM393.606,200a7.995,7.995,0,0,1-14.956,3.937,34.975,34.975,0,0,1,.8-9.036,8,8,0,0,1,14.158,5.1Zm48-112v5.853A16.116,16.116,0,0,1,435.754,88ZM347.147,56h33.515l13.789,27.578A8,8,0,0,0,401.606,88h17.013a32.12,32.12,0,0,0,22.987,22.987v4.732l-19.121,12.747-36.364,7.273-16.515-5.5V120a8,8,0,0,0-16,0v16a8,8,0,0,0,5.47,7.59l16.734,5.577-9.629,33.7c-.462.008-.922.013-1.384.013a82.178,82.178,0,0,1-61.808-27.822c.871.071,1.743.117,2.616.117a32.039,32.039,0,0,0,32-32.018V96a8,8,0,0,0-16,0v27.155a16,16,0,0,1-24.876,13.314l-5.6-3.735,7.967-23.9,6.1-18.3,0-.008,6.823-20.472ZM170.209,253.548l55.575-41.682a160.388,160.388,0,0,0,46.385-55.115l7.253-7.252a98.045,98.045,0,0,0,82.214,49.322c-.019.391-.03.783-.03,1.179a23.905,23.905,0,0,0,1.282,7.722c.107,1.03.237,2.057.407,3.077a125.03,125.03,0,0,1-8.424,69.94l-8.011,18.694-30.911,30.91A8,8,0,0,0,313.606,336v48a7.966,7.966,0,0,0,.191,1.735l7.04,31.68c.019.085.051.165.072.249.055.213.113.424.184.628.042.124.093.243.141.364q.1.262.226.515c.055.112.11.224.17.333.1.185.21.363.324.538.053.082.1.166.158.246a7.9,7.9,0,0,0,.539.681c.076.086.159.166.239.249.13.134.262.266.4.391.1.09.2.177.3.262.14.114.285.22.432.325.1.072.2.147.305.215a8.225,8.225,0,0,0,.737.419c.1.049.2.09.3.136.19.086.382.165.578.235.057.021.11.049.167.069l17.933,5.977L339.36,448H311.717l-22.393-82.1a8,8,0,0,0-13.375-3.553l-31.082,31.082-9.4,4.7a45.443,45.443,0,0,0,3.482-28.219,64.873,64.873,0,0,0-34.824-45.594l-6.937-3.468a8,8,0,1,0-7.157,14.31l6.939,3.469a48.977,48.977,0,0,1,26.29,34.421,29.37,29.37,0,0,1-2.518,18.8A29.063,29.063,0,0,1,194.6,408a8,8,0,0,0,0,16h31.714a15.308,15.308,0,0,1,15.291,15.291V448H135.579a13.99,13.99,0,0,1-13.973-13.974v-9.782c0-.068,0-.138,0-.206v-.061a7.983,7.983,0,0,0-.07-1.009c-.006-.044-.011-.088-.017-.131a8.052,8.052,0,0,0-.215-1.034l-15.389-53.86,9-33.012A152.305,152.305,0,0,1,170.209,253.548ZM32.526,300.2a80.216,80.216,0,0,1,19.728,15.859,80.206,80.206,0,0,1,17.5,31.561,42.486,42.486,0,0,0,21.127,25.946l14.729,51.551v8.906a30,30,0,0,0,.6,5.974H88.73a35.88,35.88,0,0,1-32.094-19.838A234.4,234.4,0,0,1,32,315.84C32,310.64,32.177,305.41,32.526,300.2Z"/><path d="M456.336,384.009c-.057,0-.114,0-.171,0s-.11,0-.165,0a40,40,0,0,0-.072,80c.022,0,.044,0,.066,0l.042,0a40,40,0,0,0,.3-79.99ZM432,424a24.039,24.039,0,0,1,19.026-23.478,63.932,63.932,0,0,1,0,46.956A24.039,24.039,0,0,1,432,424Zm36.92,20.209a80.257,80.257,0,0,0,0-40.418,23.97,23.97,0,0,1,0,40.418Z"/></g></svg>
