<?xml version="1.0" encoding="iso-8859-1"?>
<!-- Generator: Adobe Illustrator 21.0.0, SVG Export Plug-In . SVG Version: 6.00 Build 0)  -->
<svg version="1.1" id="Capa_1" xmlns="http://www.w3.org/2000/svg" xmlns:xlink="http://www.w3.org/1999/xlink" x="0px" y="0px"
	 viewBox="0 0 512 512" style="enable-background:new 0 0 512 512;" xml:space="preserve">
<g>
	<g>
		<path d="M478.546,197.824h-28.054c1.306-9.865,0.069-20.036-3.832-29.455c-5.427-13.101-15.509-23.61-28.052-29.675
			c-0.804-13.911-6.656-27.247-16.682-37.274c-10.026-10.026-23.363-15.878-37.274-16.682
			c-6.067-12.544-16.576-22.627-29.677-28.053c-13.102-5.427-27.659-5.729-40.821-1.147c-10.405-9.268-23.973-14.561-38.152-14.561
			c-14.18,0-27.747,5.293-38.152,14.561c-13.161-4.582-27.722-4.279-40.821,1.148c-13.099,5.427-23.609,15.509-29.675,28.053
			c-13.91,0.805-27.249,6.657-37.275,16.682c-10.026,10.027-15.877,23.363-16.682,37.274c-12.544,6.066-22.627,16.576-28.053,29.676
			c-3.901,9.419-5.139,19.59-3.832,29.455H33.455L0,471.025h512L478.546,197.824z M93.061,179.851
			c3.376-8.153,10.547-14.202,19.182-16.181l13.799-3.162l-2.358-13.96c-1.476-8.734,1.369-17.673,7.608-23.914
			c6.24-6.24,15.183-9.085,23.915-7.609l13.958,2.357l3.163-13.798c1.979-8.634,8.029-15.806,16.182-19.182
			s17.502-2.583,25.006,2.122l11.993,7.52l8.202-11.536c5.133-7.22,13.466-11.529,22.291-11.529s17.157,4.311,22.291,11.529
			l8.202,11.536l11.993-7.52c7.504-4.706,16.852-5.5,25.005-2.122c8.153,3.377,14.203,10.548,16.182,19.183l3.163,13.798
			l13.958-2.357c8.731-1.477,17.673,1.369,23.914,7.609c6.24,6.241,9.084,15.18,7.609,23.914l-2.358,13.96l13.799,3.162
			c8.634,1.979,15.805,8.028,19.182,16.181c2.383,5.753,2.68,12.098,1.001,17.973H92.06
			C90.381,191.949,90.678,185.603,93.061,179.851z M33.901,441.021l26.107-213.194h391.984l26.107,213.194H33.901z"/>
	</g>
</g>
<g>
	<g>
		<path d="M418.383,308.842c0.002-13.611-5.298-26.408-14.923-36.034l-0.484-0.484l-0.045-0.037
			c-9.563-9.297-22.143-14.407-35.508-14.407c-20.813,0-39.138,12.725-46.947,31.155H191.523
			c-7.809-18.43-26.133-31.155-46.945-31.155c-13.614,0-26.411,5.301-36.035,14.926c-9.626,9.625-14.927,22.423-14.927,36.036
			c0,9.138,2.385,17.899,6.863,25.583c-4.477,7.684-6.863,16.445-6.863,25.583c0,13.611,5.3,26.408,14.924,36.034l0.484,0.484
			l0.044,0.037c9.563,9.297,22.144,14.408,35.508,14.407c0.001,0,0,0,0.001,0c20.811,0,39.137-12.727,46.945-31.155h128.953
			c7.809,18.429,26.133,31.155,46.945,31.155c13.613,0,26.41-5.301,36.035-14.927c9.626-9.625,14.927-22.423,14.927-36.035
			c0-9.138-2.385-17.9-6.863-25.584C415.998,326.74,418.383,317.979,418.383,308.842z M382.146,345.098
			c4.021,3.971,6.236,9.267,6.236,14.91c0,5.599-2.18,10.861-6.139,14.82c-3.958,3.958-9.222,6.139-14.82,6.139
			c-10.454,0-19.379-7.799-20.761-18.14l-1.739-13.015H167.079l-1.739,13.015c-1.382,10.341-10.308,18.14-20.762,18.14
			c-5.598,0-10.859-2.179-14.818-6.137l-0.077-0.077c-3.911-3.951-6.064-9.182-6.064-14.744c0-5.644,2.214-10.939,6.236-14.91
			l10.807-10.674l-10.808-10.673c-4.021-3.97-6.235-9.266-6.235-14.909c0-5.599,2.18-10.861,6.139-14.821
			c3.958-3.958,9.221-6.138,14.82-6.138c10.453,0,19.378,7.798,20.76,18.14l1.741,13.013h177.844l1.739-13.015
			c1.382-10.341,10.308-18.14,20.762-18.14c5.598,0,10.86,2.179,14.818,6.138l0.077,0.077c3.911,3.95,6.064,9.182,6.064,14.745
			c0,5.644-2.214,10.938-6.236,14.91l-10.807,10.673L382.146,345.098z"/>
	</g>
</g>
<g>
</g>
<g>
</g>
<g>
</g>
<g>
</g>
<g>
</g>
<g>
</g>
<g>
</g>
<g>
</g>
<g>
</g>
<g>
</g>
<g>
</g>
<g>
</g>
<g>
</g>
<g>
</g>
<g>
</g>
</svg>
