<svg width="300" height="300" xmlns="http://www.w3.org/2000/svg">

 <g>
  <title>background</title>
  <rect fill="none" id="canvas_background" height="302" width="302" y="-1" x="-1"/>
 </g>
 <g>
  <title>Layer 1</title>
  <g fill="#4487a2" stroke="null" transform="rotate(-0.20313133299350739 150.5,150.00001525878614) " id="svg_1">
   <path stroke="null" id="svg_2" d="m248.02485,25.19632c2.84771,0 5.15656,-2.37791 5.15656,-5.31079l0,-10.62159c0,-2.93289 -2.30885,-5.31079 -5.15656,-5.31079s-5.15656,2.37791 -5.15656,5.31079l0,10.62159c0,2.93289 2.30885,5.31079 5.15656,5.31079z"/>
   <path stroke="null" id="svg_3" d="m248.02485,35.81791c-2.84771,0 -5.15656,2.37791 -5.15656,5.31079l0,10.62159c0,2.93289 2.30885,5.31079 5.15656,5.31079s5.15656,-2.37791 5.15656,-5.31079l0,-10.62159c0,-2.93289 -2.30885,-5.31079 -5.15656,-5.31079z"/>
   <path stroke="null" id="svg_4" d="m227.39859,35.81791l10.31313,0c2.84771,0 5.15656,-2.37791 5.15656,-5.31079s-2.30885,-5.31079 -5.15656,-5.31079l-10.31313,0c-2.84771,0 -5.15656,2.37791 -5.15656,5.31079s2.30885,5.31079 5.15656,5.31079z"/>
   <path stroke="null" id="svg_5" d="m258.33798,35.81791l10.31313,0c2.84771,0 5.15656,-2.37791 5.15656,-5.31079s-2.30885,-5.31079 -5.15656,-5.31079l-10.31313,0c-2.84771,0 -5.15656,2.37791 -5.15656,5.31079s2.30885,5.31079 5.15656,5.31079z"/>
   <path stroke="null" id="svg_6" d="m281.91895,86.42845c3.04495,0 5.51366,-2.54254 5.51366,-5.67724s-2.46871,-5.67857 -5.51366,-5.67857s-5.51237,2.54254 -5.51237,5.67857s2.46742,5.67724 5.51237,5.67724z"/>
   <path stroke="null" id="svg_7" d="m82.46946,142.62329c-5.13852,0 -9.30502,4.28979 -9.30502,9.58333c0,5.29221 4.16522,9.582 9.30502,9.582s9.30502,-4.28979 9.30502,-9.582c-0.00129,-5.29221 -4.1665,-9.58333 -9.30502,-9.58333z"/>
   <path stroke="null" id="svg_8" d="m296.61,108.95816c-1.81769,-0.86566 -3.9654,-0.57622 -5.4969,0.75148l-39.82544,34.54141c-11.87686,-11.1301 -26.89793,-17.20033 -42.79562,-17.20033c-4.08271,0 -8.10483,0.41026 -12.03284,1.1936l0,-86.4199c0,-2.10839 -1.2105,-4.01629 -3.08749,-4.86469c-1.86539,-0.84574 -4.05435,-0.46735 -5.56393,0.95993l-40.50482,38.45944l-23.85685,1.89197c-5.9958,-38.82058 -38.20499,-52.15598 -39.61531,-52.7176c-1.58178,-0.628 -3.36079,-0.4169 -4.76853,0.57357c-1.40001,0.98781 -2.23795,2.6222 -2.24311,4.36946l-0.13407,56.38869c0,0.00266 0.00129,0.00398 0.00129,0.00664s-0.00129,0.00398 -0.00129,0.00664c0,16.47674 -5.13594,28.92126 -13.42254,43.66137c-8.13319,14.47191 -19.41704,28.01178 -33.54345,40.24785c-20.41484,17.68229 -29.8694,36.14659 -28.10199,54.88175c2.85803,30.32198 34.64051,52.7322 53.33306,63.3923c7.99268,4.55666 17.16492,6.96511 26.52666,6.96511l121.92311,0c0.26814,0.00266 3.37368,-0.09294 3.37368,-0.09294c51.40451,-1.42462 92.81817,-44.83505 92.81817,-98.1156l0,-84.06456c-0.00129,-2.06723 -1.16409,-3.94459 -2.98178,-4.81556zm-183.54148,-29.86525l-26.05612,2.0659l0.09926,-41.90217c8.56505,5.54049 22.21835,17.77656 25.95686,39.83627zm-64.09223,106.01806c16.69825,0 28.33532,8.10826 28.33532,15.38537c0,8.22509 -12.56397,29.18281 -28.33532,29.18281s-28.33532,-20.95772 -28.33532,-29.18281c0,-7.27579 11.63708,-15.38537 28.33532,-15.38537zm32.50054,100.31426c-7.61625,0 -15.06233,-1.95039 -21.52995,-5.64006c-16.91998,-9.64971 -45.66138,-29.6422 -48.06305,-55.12604c-0.40221,-4.25926 0.05672,-8.54772 1.19761,-12.85079c5.59487,13.18139 19.22367,28.49241 35.89614,28.49241c21.94118,0 38.64845,-26.52742 38.64845,-39.8044c0,-14.58344 -16.97799,-26.00696 -38.64845,-26.00696c-2.87865,0 -5.66578,0.21509 -8.35106,0.59879c13.059,-12.017 23.67766,-25.17715 31.56204,-39.21092c8.0971,-14.40022 13.72935,-27.6148 14.67172,-44.05304l63.01967,-5.00011c1.15507,-0.09028 2.24826,-0.58153 3.0991,-1.3901l33.16831,-31.49168l0,77.34508c-7.55695,2.95678 -14.58405,7.39661 -20.74228,13.23715l-48.48331,-35.09904c-1.5792,-1.13784 -3.63538,-1.28123 -5.34349,-0.36512c-1.70682,0.91346 -2.77939,2.73108 -2.77939,4.712l0,84.06456c0,38.23772 21.36365,71.35849 52.40101,87.58695l-79.72307,0l0,0.00133zm123.51262,0l-1.5908,0c-32.55597,-0.31201 -60.75078,-19.54903 -74.78695,-47.52497l28.10844,0c2.84771,0 5.15656,-2.37791 5.15656,-5.31079s-2.30885,-5.31079 -5.15656,-5.31079l-32.56371,0c-0.63555,-1.82426 -1.22984,-3.66312 -1.74808,-5.54181l18.61649,0c2.84771,0 5.15656,-2.37791 5.15656,-5.31079s-2.30885,-5.31079 -5.15656,-5.31079l-20.83123,0c-0.64457,-4.34157 -1.08417,-8.75219 -1.08417,-13.27699l0,-73.83996l43.87592,31.76386c2.09228,1.51756 4.94515,1.22414 6.69967,-0.68509c10.37888,-11.22304 24.15851,-17.4048 38.80573,-17.4048c14.64336,0 28.42427,6.18176 38.80573,17.4048c1.88086,2.03802 4.96964,2.20929 7.05547,0.40229l34.92541,-30.29011l0,72.65034c0,4.5248 -0.43831,8.93541 -1.08417,13.27699l-20.83123,0c-2.84771,0 -5.15656,2.37791 -5.15656,5.31079s2.30885,5.31079 5.15656,5.31079l18.61649,0c-0.51823,1.87869 -1.11253,3.71756 -1.74808,5.54181l-32.56371,0c-2.84771,0 -5.15656,2.37791 -5.15656,5.31079s2.30885,5.31079 5.15656,5.31079l28.10844,0c-14.03488,27.97461 -42.22969,47.21163 -74.78566,47.52364z"/>
   <circle stroke="null" id="svg_9" r="8.75265" cy="197.83829" cx="231.26601"/>
   <path stroke="null" id="svg_10" d="m204.19404,212.40713c-11.16912,0 -19.59366,5.72371 -19.59366,13.31283c0,6.14326 7.69746,23.89857 19.59366,23.89857s19.59366,-17.75531 19.59366,-23.89857c0.00129,-7.59045 -8.42454,-13.31283 -19.59366,-13.31283zm0,26.58982c-3.90223,0 -9.1645,-10.22726 -9.3308,-12.98622c0.41253,-0.87628 3.68308,-2.98201 9.3308,-2.98201c5.42084,0 8.65143,1.93977 9.26764,2.87048c-0.31842,3.28871 -5.44533,13.09775 -9.26764,13.09775z"/>
   <circle stroke="null" id="svg_11" r="8.75265" cy="197.83829" cx="177.12208"/>
  </g>
 </g>
</svg>